<svg width="231" height="231" viewBox="0 0 231 231" fill="none" xmlns="http://www.w3.org/2000/svg">
<path d="M161.922 29.1709H69.0781V20.8271H161.922V29.1709ZM71.8501 26.3989H159.15V23.5991H71.8501V26.3989Z" fill="black"/>
<path d="M221.529 161.289H9.4707L13.4162 128.773H217.565L221.529 161.289ZM12.6031 158.517H218.401L215.116 131.545H15.874L12.6031 158.517Z" fill="black"/>
<path d="M217.736 131.546H13.2549L13.6892 48.5703C13.7538 36.3458 23.7515 26.3989 35.976 26.3989H194.775C206.962 26.3989 216.96 36.3134 217.062 48.501L217.736 131.546ZM16.0407 128.774H214.946L214.29 48.5287C214.202 37.8565 205.447 29.1755 194.775 29.1755H35.976C25.2715 29.1755 16.5166 37.8842 16.4612 48.5888L16.0407 128.774Z" fill="black"/>
<path d="M217.242 210.173H13.7585C11.4947 210.173 9.65137 208.33 9.65137 206.066V158.517H221.349V206.066C221.349 208.33 219.506 210.173 217.242 210.173ZM12.4234 161.289V206.066C12.4234 206.801 13.024 207.401 13.7585 207.401H217.242C217.976 207.401 218.577 206.801 218.577 206.066V161.289H12.4234Z" fill="black"/>
<path d="M209.29 184.223H28.5283V172.114H209.29V184.223ZM31.3003 181.451H206.518V174.886H31.3003V181.451Z" fill="black"/>
<path d="M116.918 161.289H100.254L103.414 130.09V109.425L105.239 110.035C105.271 110.044 108.727 111.167 114.904 111.435L116.23 111.49V130.146L116.918 161.289ZM103.322 158.517H114.082L113.458 130.159V114.133C110.159 113.92 107.711 113.486 106.186 113.144L106.177 130.298L103.322 158.517Z" fill="black"/>
<path d="M130.811 161.289H114.142L113.458 130.187V111.504L114.77 111.434C122.125 111.042 124.463 110.372 124.486 110.367L126.265 109.845L126.274 111.698V130.062L130.811 161.289ZM116.854 158.517H127.609L123.507 130.256V113.384C122.121 113.611 119.82 113.897 116.235 114.123V130.155L116.854 158.517Z" fill="black"/>
<path d="M116.918 161.289H100.254L103.548 128.773H116.202L116.918 161.289ZM103.322 158.517H114.082L113.49 131.545H106.057L103.322 158.517Z" fill="black"/>
<path d="M130.81 161.289H114.141L113.43 128.773H126.088L130.81 161.289ZM116.853 158.517H127.608L123.691 131.545H116.262L116.853 158.517Z" fill="black"/>
<path d="M115.499 114.202C92.9953 114.202 74.6816 95.893 74.6816 73.3844C74.6816 50.8757 92.9953 32.5713 115.499 32.5713C138.003 32.5713 156.317 50.8804 156.317 73.389C156.317 95.8976 138.003 114.202 115.499 114.202ZM115.499 35.3433C94.5199 35.3433 77.4536 52.4096 77.4536 73.389C77.4536 94.3684 94.5199 111.435 115.499 111.435C136.479 111.435 153.545 94.3684 153.545 73.389C153.545 52.4096 136.479 35.3433 115.499 35.3433Z" fill="black"/>
<path d="M115.494 93.2133C104.563 93.2133 95.6699 84.3198 95.6699 73.3889C95.6699 62.458 104.563 53.5645 115.494 53.5645C126.425 53.5645 135.319 62.458 135.319 73.3889C135.319 84.3198 126.425 93.2133 115.494 93.2133ZM115.494 56.3318C106.093 56.3318 98.4419 63.9826 98.4419 73.3843C98.4419 82.786 106.093 90.4367 115.494 90.4367C124.896 90.4367 132.547 82.786 132.547 73.3843C132.547 63.9826 124.896 56.3318 115.494 56.3318Z" fill="black"/>
<path d="M111.858 71.7073C109.215 71.7073 107.062 69.5544 107.062 66.9118C107.062 64.2691 109.215 62.1162 111.858 62.1162C114.501 62.1162 116.654 64.2691 116.654 66.9118C116.654 69.5544 114.505 71.7073 111.858 71.7073ZM111.858 64.8836C110.74 64.8836 109.834 65.7891 109.834 66.9072C109.834 68.0252 110.745 68.9307 111.858 68.9307C112.971 68.9307 113.882 68.0252 113.882 66.9072C113.882 65.7891 112.976 64.8836 111.858 64.8836Z" fill="black"/>
<path d="M120.836 84.6619C118.193 84.6619 116.04 82.509 116.04 79.8664C116.04 77.2237 118.193 75.0708 120.836 75.0708C123.478 75.0708 125.631 77.2237 125.631 79.8664C125.631 82.509 123.483 84.6619 120.836 84.6619ZM120.836 77.8428C119.718 77.8428 118.812 78.7483 118.812 79.8664C118.812 80.9844 119.718 81.8899 120.836 81.8899C121.954 81.8899 122.859 80.9844 122.859 79.8664C122.859 78.7483 121.954 77.8428 120.836 77.8428Z" fill="black"/>
<path d="M108.449 81.4096C106.74 81.4096 105.354 80.0189 105.354 78.3141C105.354 76.6094 106.744 75.2188 108.449 75.2188C110.154 75.2188 111.544 76.6094 111.544 78.3141C111.544 80.0189 110.158 81.4096 108.449 81.4096ZM108.449 77.9861C108.269 77.9861 108.126 78.134 108.126 78.3095C108.126 78.4851 108.273 78.6329 108.449 78.6329C108.629 78.6329 108.772 78.4851 108.772 78.3095C108.772 78.134 108.629 77.9861 108.449 77.9861Z" fill="black"/>
</svg>
